# xmcd CD database file
#
# Track frame offsets:
#	150
#	2219
#	15659
#	28764
#	41560
#	44249
#	57243
#	64173
#	76349
#	89499
#	102585
#	115581
#	129451
#	143225
#	154666
#	169123
#	180833
#	194546
#	207743
#	220123
#	235173
#	246908
#	261264
#	275071
#	293336
#	316038
#	331399
#
# Disc length: 4602 seconds
#
# Revision: 0
# Processed by: cddbd v1.5.1PL0 Copyright (c) Steve Scherf et al.
# Submitted via: CDex 1.51
#
DISCID=8b11f81b
DTITLE=Various Artist - Classic Columbia Condon Mob Sessions
DYEAR=2001
DGENRE=Jazz
TTITLE0=Jack Hits the Road (breakdown) - Bud Freeman and his Famous Chicagoans
TTITLE1=Jack Hits the Road - Bud Freeman and his Famous Chicagoans
TTITLE2=Forty-Seventh and State - Bud Freeman and his Famous Chicagoans
TTITLE3=Muskrat Ramble (alt take) - Bud Freeman and his Famous Chicagoans
TTITLE4=Muskrat Ramble (breakdown) - Bud Freeman and his Famous Chicagoans
TTITLE5=Muskrat Ramble - Bud Freeman and his Famous Chicagoans
TTITLE6=That Da Da Strain (breakdown) - Bud Freeman and his Famous Chicagoans
TTITLE7=That Da Da Strain  - Bud Freeman and his Famous Chicagoans
TTITLE8=Shim-Me-Sha-Wabble (alt take) - Bud Freeman and his Famous Chicagoans
TTITLE9=Shim-Me-Sha-Wabble - Bud Freeman and his Famous Chicagoans
TTITLE10=At the Jazz Band Ball - Bud Freeman and his Famous Chicagoans
TTITLE11=After Awhile (alt take) - Bud Freeman and his Famous Chicagoans
TTITLE12=After Awhile - Bud Freeman and his Famous Chicagoans
TTITLE13=Prince of Wails - Bud Freeman and his Famous Chicagoans
TTITLE14=After You're Gone - George Wettling's Jazz Band
TTITLE15=Collier's Clambake - George Wettling's Jazz Band
TTITLE16=Collier's Clime (Key Changin' Blues) - George Wettling's Jazz Band
TTITLE17=Rose Room - George Wettling's Jazz Band
TTITLE18=As Long As I Live - George Wettling's Jazz Band
TTITLE19=A Good Man Is Hard to Find - George Wettling's Jazz Band
TTITLE20=Indiana - George Wettling's Jazz Band
TTITLE21=Memphis Blues - George Wettling's Jazz Band
TTITLE22=Ginger Brown - George Wettling - Bud Freeman All Stars
TTITLE23=Runnin' Wild - George Wettling - Bud Freeman All Stars
TTITLE24=Dinah - George Wettling - Bud Freeman All Stars
TTITLE25=Odd Aardvark (alt take) - George Wettling - Bud Freeman All Stars
TTITLE26=Odd Aardvark - George Wettling - Bud Freeman All Stars
EXTD=YEAR: 2001
EXTT0=
EXTT1=
EXTT2=
EXTT3=
EXTT4=
EXTT5=
EXTT6=
EXTT7=
EXTT8=
EXTT9=
EXTT10=
EXTT11=
EXTT12=
EXTT13=
EXTT14=
EXTT15=
EXTT16=
EXTT17=
EXTT18=
EXTT19=
EXTT20=
EXTT21=
EXTT22=
EXTT23=
EXTT24=
EXTT25=
EXTT26=
PLAYORDER=
